<svg width="32" height="31" viewBox="0 0 32 31" fill="none" xmlns="http://www.w3.org/2000/svg">
<path d="M20.3202 8.24658H11.0808C9.60608 8.24658 8.40625 9.44641 8.40625 10.9212V20.1606C8.40625 21.6353 9.60608 22.8355 11.0808 22.8355H20.3202C21.795 22.8355 22.9952 21.6357 22.9952 20.1606V10.9212C22.9952 9.44641 21.7953 8.24658 20.3202 8.24658ZM15.7005 20.3436C13.0526 20.3436 10.8981 18.1892 10.8981 15.5409C10.8981 12.8929 13.0526 10.7384 15.7005 10.7384C18.3489 10.7384 20.5033 12.8929 20.5033 15.5409C20.5033 18.1888 18.3485 20.3436 15.7005 20.3436ZM20.6577 11.7314C20.0308 11.7314 19.521 11.2216 19.521 10.5951C19.521 9.96861 20.0308 9.45884 20.6577 9.45884C21.2842 9.45884 21.7939 9.96861 21.7939 10.5951C21.7939 11.2216 21.2842 11.7314 20.6577 11.7314Z" fill="#4C4A4F"/>
<path d="M15.6982 12.7695C14.1695 12.7695 12.9248 14.0136 12.9248 15.5422C12.9248 17.0715 14.1695 18.3159 15.6982 18.3159C17.2275 18.3159 18.4712 17.0715 18.4712 15.5422C18.4712 14.0139 17.2271 12.7695 15.6982 12.7695Z" fill="#4C4A4F"/>
<path d="M15.7002 0C7.14012 0 0.200195 6.93993 0.200195 15.5C0.200195 24.0601 7.14012 31 15.7002 31C24.2603 31 31.2002 24.0601 31.2002 15.5C31.2002 6.93993 24.2603 0 15.7002 0ZM25.0239 20.1615C25.0239 22.7556 22.914 24.8655 20.3199 24.8655H11.0805C8.48673 24.8655 6.3765 22.7556 6.3765 20.1615V10.9221C6.3765 8.32833 8.48673 6.2181 11.0805 6.2181H20.3199C22.914 6.2181 25.0239 8.32833 25.0239 10.9221V20.1615Z" fill="#4C4A4F"/>
</svg>
