<svg width="32" height="31" viewBox="0 0 32 31" fill="none" xmlns="http://www.w3.org/2000/svg">
<path d="M16.0996 0C7.53913 0 0.599609 6.93953 0.599609 15.5C0.599609 24.0605 7.53913 31 16.0996 31C24.66 31 31.5996 24.0605 31.5996 15.5C31.5995 6.93953 24.6599 0 16.0996 0ZM11.9642 22.9935H8.56098V11.9988H11.9642V22.9935ZM10.2464 10.559C9.13491 10.559 8.23389 9.65062 8.23389 8.53028C8.23389 7.40981 9.13503 6.5015 10.2464 6.5015C11.3577 6.5015 12.2587 7.40981 12.2587 8.53028C12.2587 9.65068 11.3577 10.559 10.2464 10.559ZM24.7176 22.9935H21.3309V17.2222C21.3309 15.6393 20.7296 14.7557 19.478 14.7557C18.1158 14.7557 17.4041 15.676 17.4041 17.2222V22.9935H14.1401V11.9988H17.4041V13.4796C17.4041 13.4796 18.386 11.6635 20.7173 11.6635C23.0487 11.6635 24.7176 13.087 24.7176 16.0318L24.7176 22.9935Z" fill="#4C4A4F"/>
</svg>
