<svg width="151" height="31" viewBox="0 0 151 31" fill="none" xmlns="http://www.w3.org/2000/svg">
<g clip-path="url(#clip0_2388_40378)">
<path d="M32.1496 1.76928C30.5487 0.646369 28.3413 0.0563651 25.5259 0H3.41837V0.00366007H2.61828L0 4.89352H3.41837V22.1969H9.21469V4.89352H13.3792V4.88547H15.9629V22.1969H21.842V4.92792H22.732C23.022 4.92792 23.3048 4.91401 23.581 4.88547C25.3201 4.82983 26.6238 4.96379 27.4937 5.28588C28.3629 5.60943 28.7974 6.80993 28.7974 8.88739V22.1976H34.5938V8.17148C34.5664 5.02675 33.7512 2.89292 32.1511 1.76928H32.1496Z" fill="#3E82F7"/>
<path d="M92.2146 0.00366007H87.8436V0L77.3698 0.00146403C75.8517 0.00146403 74.3889 0.2035 72.9816 0.526319C71.5735 0.849137 70.3043 1.55846 69.1725 2.65355C68.2335 3.58028 67.5097 4.66147 66.9989 5.89638C66.488 7.13275 66.1635 8.39621 66.0261 9.68748C65.998 9.94003 65.9772 10.1926 65.9642 10.4458C65.9498 10.6984 65.9434 10.9509 65.9434 11.2035C65.9434 11.4004 65.9498 11.6039 65.9642 11.814C65.9779 12.0248 65.9851 12.2422 65.9851 12.4669C66.1232 13.8146 66.447 15.1351 66.9579 16.4264C67.468 17.7184 68.2062 18.8413 69.1725 19.7959C70.387 21.0037 71.6562 21.7057 72.9816 21.9019C74.3062 22.0988 75.7689 22.1969 77.3698 22.1969H82.048C82.1027 23.3476 81.8343 24.2114 81.2407 24.7875C80.6472 25.3621 79.7708 25.6644 78.6117 25.693H70.9209L68.3026 30.2H79.6046C82.5574 30.2 84.6692 29.4555 85.9391 27.9674C87.2083 26.4792 87.8436 24.2882 87.8436 21.3968V4.73028H89.5963L92.2146 0.00366007ZM82.0473 17.6064C82.0473 17.6064 76.6928 17.6298 76.0992 17.5178C75.5056 17.4058 74.6781 17.0874 74.181 16.7214C73.242 16.048 72.6283 15.1988 72.339 14.1733C72.0491 13.1484 71.9181 12.1024 71.9455 11.0351C71.9455 10.8668 71.9519 10.6984 71.9663 10.53C71.98 10.3617 71.9872 10.1926 71.9872 10.0242C72.1246 7.55366 72.96 6.05157 74.4918 5.51793C76.0236 4.98429 77.6864 4.73174 79.4808 4.75956C79.6463 4.75956 82.0415 4.76908 82.048 4.75956V17.6064H82.0473Z" fill="#ED6545"/>
<path d="M147.824 22.2064L150.598 17.7191H146.131V8.33984C146.131 7.21693 145.972 6.12184 145.655 5.05456C145.337 3.98802 144.778 3.06129 143.977 2.2751C143.038 1.32129 141.983 0.710055 140.81 0.442869C139.637 0.176416 138.416 0.029281 137.146 0.000732422H127.966L125.347 4.59193L134.952 4.63439C136.497 4.63439 137.774 4.85911 138.782 5.30784C139.789 5.7573 140.252 6.89485 140.169 8.71976L132.593 8.76148C130.302 8.76148 128.328 9.15531 126.673 9.94076C125.017 10.7277 124.092 12.4545 123.899 15.122C123.788 17.3407 124.326 19.0748 125.514 20.3237C126.7 21.5739 128.412 22.1983 130.647 22.1983H137.858V22.2079H147.824V22.2064ZM133.007 17.7323C133.007 17.7323 129.902 17.9592 129.902 15.5004C129.902 13.0416 133.365 13.1697 133.422 13.1411H140.212V17.7191H137.859V17.7323H133.007Z" fill="#00BAD1"/>
<path d="M117.056 1.72755C115.456 0.604644 113.22 0.0285486 110.35 0H99.5027V0.00366007H98.422L95.8037 4.89352H99.5027V22.1969H105.257V4.89352H106.126L109.894 4.92792C111.439 4.92792 112.461 5.19511 112.957 5.72801C113.454 6.26165 113.703 7.30111 113.703 8.84493V22.1969H119.457V8.17148C119.457 4.99893 118.657 2.85047 117.056 1.72755Z" fill="#8A49EF"/>
<path d="M58.7782 17.3268V0L53.0236 2.6638V17.3114L51.3098 17.3268H49.1685V17.3466L48.3872 17.3539C46.9798 17.3539 45.9998 17.1013 45.448 16.5955C44.8954 16.0897 44.6198 15.0934 44.6198 13.6052V0L38.8652 2.6638V14.1103C38.8652 17.2551 39.679 19.3903 41.308 20.5125C42.9362 21.6354 45.1444 22.1969 47.9324 22.1969H49.1693V22.2166H59.9294L62.5477 17.3268H58.779H58.7782Z" fill="#FDBD00"/>
</g>
<defs>
<clipPath id="clip0_2388_40378">
<rect width="150.597" height="30.2" fill="white"/>
</clipPath>
</defs>
</svg>
